<svg width="20" height="20" viewBox="0 0 20 20" fill="none" xmlns="http://www.w3.org/2000/svg">
<path fill-rule="evenodd" clip-rule="evenodd" d="M3.81254 12.2914C3.81254 11.9117 4.12035 11.6039 4.50004 11.6039H11.8334C12.2131 11.6039 12.5209 11.9117 12.5209 12.2914C12.5209 12.6711 12.2131 12.9789 11.8334 12.9789H4.50004C4.12035 12.9789 3.81254 12.6711 3.81254 12.2914Z" fill="#1E73FF"/>
<path fill-rule="evenodd" clip-rule="evenodd" d="M3.81254 15.4997C3.81254 15.12 4.12035 14.8122 4.50004 14.8122H9.54171C9.9214 14.8122 10.2292 15.12 10.2292 15.4997C10.2292 15.8794 9.9214 16.1872 9.54171 16.1872H4.50004C4.12035 16.1872 3.81254 15.8794 3.81254 15.4997Z" fill="#1E73FF"/>
<path fill-rule="evenodd" clip-rule="evenodd" d="M10.2292 1.59771C9.80717 1.52599 9.23185 1.52055 8.19402 1.52055C6.43706 1.52055 5.18823 1.522 4.24141 1.64872C3.31384 1.77286 2.78086 2.00573 2.39345 2.39313C2.00551 2.78107 1.77298 3.31242 1.64899 4.23466C1.52233 5.17669 1.52087 6.41847 1.52087 8.16639V11.8331C1.52087 13.581 1.52233 14.8228 1.64899 15.7648C1.77298 16.687 2.00551 17.2184 2.39345 17.6063C2.78139 17.9943 3.31274 18.2268 4.23499 18.3508C5.17701 18.4774 6.41879 18.4789 8.16671 18.4789H11.8334C13.5813 18.4789 14.8231 18.4774 15.7651 18.3508C16.6873 18.2268 17.2187 17.9943 17.6066 17.6063C17.9946 17.2184 18.2271 16.687 18.3511 15.7648C18.4777 14.8228 18.4792 13.581 18.4792 11.8331V11.4324C18.4792 10.0244 18.4693 9.3569 18.3199 8.85389H15.4508C14.4124 8.85391 13.5638 8.85393 12.8939 8.76385C12.1936 8.6697 11.5864 8.46595 11.1018 7.98131C10.6172 7.49667 10.4134 6.88953 10.3192 6.18924C10.2292 5.51928 10.2292 4.6707 10.2292 3.63227V1.59771ZM11.6042 2.30838V3.58305C11.6042 4.68279 11.6057 5.43843 11.682 6.00603C11.7556 6.55384 11.8875 6.82246 12.0741 7.00904C12.2606 7.19562 12.5293 7.32746 13.0771 7.40112C13.6447 7.47743 14.4003 7.47889 15.5 7.47889H17.3512C17.0795 7.2153 16.7313 6.89948 16.2792 6.49257L12.6503 3.22658C12.2054 2.82614 11.8742 2.53056 11.6042 2.30838ZM8.32754 0.145531C9.59676 0.145191 10.4168 0.144972 11.1715 0.434582C11.9262 0.724189 12.5329 1.27057 13.4717 2.11593C13.5041 2.14511 13.5369 2.17465 13.5702 2.20455L17.199 5.47054C17.2377 5.50531 17.2758 5.53963 17.3135 5.57354C18.3985 6.54947 19.1002 7.18054 19.4776 8.02794C19.855 8.87534 19.8547 9.81901 19.8542 11.2784C19.8542 11.3291 19.8542 11.3804 19.8542 11.4324V11.8848C19.8542 13.5694 19.8542 14.9037 19.7138 15.948C19.5693 17.0227 19.2649 17.8926 18.5789 18.5786C17.8929 19.2646 17.023 19.569 15.9483 19.7135C14.904 19.8539 13.5697 19.8539 11.8851 19.8539H8.115C6.43038 19.8539 5.09605 19.8539 4.05177 19.7135C2.97705 19.569 2.10718 19.2646 1.42118 18.5786C0.735181 17.8926 0.43074 17.0227 0.286248 15.948C0.145848 14.9037 0.14586 13.5694 0.145874 11.8848V8.11467C0.14586 6.43006 0.145848 5.09573 0.286248 4.05145C0.43074 2.97673 0.735181 2.10686 1.42118 1.42086C2.10772 0.734325 2.9805 0.430216 4.05901 0.285873C5.10763 0.145528 6.4486 0.14554 8.14243 0.145554L8.19402 0.145554C8.23908 0.145554 8.28358 0.145542 8.32754 0.145531Z" fill="#1E73FF"/>
</svg>
