<svg width="22" height="22" viewBox="0 0 22 22" fill="none" xmlns="http://www.w3.org/2000/svg">
<g id="Outline / Files / File Text">
<g id="Vector">
<path fill-rule="evenodd" clip-rule="evenodd" d="M4.81218 13.2916C4.81218 12.9119 5.11998 12.6041 5.49967 12.6041H12.833C13.2127 12.6041 13.5205 12.9119 13.5205 13.2916C13.5205 13.6713 13.2127 13.9791 12.833 13.9791H5.49967C5.11998 13.9791 4.81218 13.6713 4.81218 13.2916Z" fill="black" fill-opacity="0.3"/>
<path fill-rule="evenodd" clip-rule="evenodd" d="M4.81218 16.5C4.81218 16.1203 5.11998 15.8125 5.49967 15.8125H10.5413C10.921 15.8125 11.2288 16.1203 11.2288 16.5C11.2288 16.8797 10.921 17.1875 10.5413 17.1875H5.49967C5.11998 17.1875 4.81218 16.8797 4.81218 16.5Z" fill="black" fill-opacity="0.3"/>
<path fill-rule="evenodd" clip-rule="evenodd" d="M11.2288 2.59795C10.8068 2.52624 10.2315 2.5208 9.19365 2.5208C7.43669 2.5208 6.18786 2.52225 5.24104 2.64897C4.31347 2.77311 3.78049 3.00597 3.39309 3.39338C3.00514 3.78132 2.77261 4.31266 2.64862 5.23491C2.52197 6.17693 2.52051 7.41871 2.52051 9.16663V12.8333C2.52051 14.5812 2.52197 15.823 2.64862 16.765C2.77261 17.6873 3.00514 18.2186 3.39309 18.6066C3.78103 18.9945 4.31237 19.227 5.23462 19.351C6.17664 19.4777 7.41842 19.4791 9.16634 19.4791H12.833C14.5809 19.4791 15.8227 19.4777 16.7647 19.351C17.687 19.227 18.2183 18.9945 18.6063 18.6066C18.9942 18.2186 19.2267 17.6873 19.3507 16.765C19.4774 15.823 19.4788 14.5812 19.4788 12.8333V12.4326C19.4788 11.0246 19.469 10.3571 19.3195 9.85413H16.4505C15.412 9.85415 14.5634 9.85417 13.8935 9.7641C13.1932 9.66995 12.5861 9.46619 12.1014 8.98155C11.6168 8.49692 11.413 7.88978 11.3189 7.18949C11.2288 6.51953 11.2288 5.67094 11.2288 4.63251V2.59795ZM12.6038 3.30863V4.5833C12.6038 5.68304 12.6053 6.43868 12.6816 7.00627C12.7553 7.55409 12.8871 7.8227 13.0737 8.00928C13.2603 8.19586 13.5289 8.32771 14.0767 8.40136C14.6443 8.47767 15.3999 8.47913 16.4997 8.47913H18.3508C18.0791 8.21555 17.731 7.89972 17.2788 7.49281L13.65 4.22682C13.205 3.82639 12.8739 3.5308 12.6038 3.30863ZM9.32718 1.14577C10.5964 1.14544 11.4164 1.14522 12.1711 1.43483C12.9258 1.72443 13.5326 2.27082 14.4714 3.11617C14.5038 3.14536 14.5366 3.1749 14.5698 3.20479L18.1987 6.47078C18.2373 6.50555 18.2755 6.53988 18.3132 6.57379C19.3982 7.54971 20.0998 8.18079 20.4772 9.02818C20.8546 9.87558 20.8543 10.8193 20.8539 12.2786C20.8539 12.3293 20.8538 12.3806 20.8538 12.4326V12.885C20.8539 14.5696 20.8539 15.904 20.7135 16.9482C20.569 18.023 20.2645 18.8928 19.5785 19.5788C18.8925 20.2648 18.0227 20.5693 16.9479 20.7138C15.9037 20.8542 14.5693 20.8541 12.8847 20.8541H9.11463C7.43002 20.8541 6.09568 20.8542 5.0514 20.7138C3.97668 20.5693 3.10681 20.2648 2.42081 19.5788C1.73481 18.8928 1.43037 18.023 1.28588 16.9482C1.14548 15.904 1.14549 14.5696 1.14551 12.885V9.11492C1.14549 7.4303 1.14548 6.09597 1.28588 5.05169C1.43037 3.97697 1.73481 3.1071 2.42081 2.4211C3.10735 1.73457 3.98013 1.43046 5.05864 1.28612C6.10727 1.14577 7.44824 1.14578 9.14206 1.1458L9.19365 1.1458C9.23871 1.1458 9.28321 1.14579 9.32718 1.14577Z" fill="black" fill-opacity="0.3"/>
</g>
</g>
</svg>
