<svg width="22" height="22" viewBox="0 0 22 22" fill="none" xmlns="http://www.w3.org/2000/svg">
<path d="M8.25001 15.8125C7.87031 15.8125 7.56251 16.1203 7.56251 16.5C7.56251 16.8797 7.87031 17.1875 8.25001 17.1875H13.75C14.1297 17.1875 14.4375 16.8797 14.4375 16.5C14.4375 16.1203 14.1297 15.8125 13.75 15.8125H8.25001Z" fill="#B9B9B9"/>
<path fill-rule="evenodd" clip-rule="evenodd" d="M11 1.14584C10.3509 1.14584 9.76116 1.33175 9.12135 1.64289C8.50287 1.94365 7.7884 2.38708 6.89596 2.94097L5.0016 4.11666C4.15717 4.64073 3.481 5.06037 2.95984 5.45949C2.42015 5.8728 2.00563 6.29374 1.70621 6.84075C1.40742 7.38662 1.27286 7.96743 1.20835 8.65398C1.14583 9.31933 1.14584 10.1329 1.14584 11.1533V12.6315C1.14583 14.3768 1.14582 15.7544 1.28582 16.8315C1.42943 17.9364 1.73119 18.8284 2.413 19.5337C3.09796 20.2422 3.9696 20.5587 5.04865 20.7088C6.09446 20.8542 7.43011 20.8542 9.11337 20.8542H12.8866C14.5699 20.8542 15.9056 20.8542 16.9514 20.7088C18.0304 20.5587 18.9021 20.2422 19.587 19.5337C20.2688 18.8284 20.5706 17.9364 20.7142 16.8315C20.8542 15.7544 20.8542 14.3768 20.8542 12.6315V11.1533C20.8542 10.133 20.8542 9.31931 20.7917 8.65398C20.7272 7.96743 20.5926 7.38662 20.2938 6.84075C19.9944 6.29374 19.5799 5.8728 19.0402 5.45949C18.519 5.06037 17.8429 4.64074 16.9984 4.11667L15.104 2.94096C14.2116 2.38708 13.4971 1.94365 12.8787 1.64289C12.2389 1.33175 11.6491 1.14584 11 1.14584ZM7.58958 4.12878C8.52069 3.5509 9.17538 3.14558 9.72267 2.87943C10.2559 2.62013 10.6335 2.52084 11 2.52084C11.3665 2.52084 11.7441 2.62013 12.2773 2.87943C12.8246 3.14557 13.4793 3.5509 14.4104 4.12878L16.2438 5.26659C17.1245 5.81322 17.7429 6.19791 18.2042 6.55114C18.653 6.89484 18.9112 7.17847 19.0877 7.50095C19.2648 7.82457 19.3682 8.20293 19.4227 8.78262C19.4785 9.37621 19.4792 10.1253 19.4792 11.1869V12.5812C19.4792 14.3879 19.4778 15.6761 19.3507 16.6543C19.2258 17.615 18.9906 18.1723 18.5985 18.578C18.2095 18.9803 17.6799 19.2192 16.762 19.3469C15.8218 19.4776 14.5819 19.4792 12.8333 19.4792H9.16668C7.41811 19.4792 6.17819 19.4776 5.23805 19.3469C4.32013 19.2192 3.79055 18.9803 3.40157 18.578C3.00944 18.1723 2.77422 17.615 2.64935 16.6543C2.52221 15.6761 2.52084 14.3879 2.52084 12.5812V11.1869C2.52084 10.1253 2.52154 9.37621 2.57732 8.78262C2.63179 8.20293 2.7352 7.82457 2.91234 7.50095C3.08886 7.17847 3.34706 6.89484 3.79585 6.55114C4.2571 6.19791 4.87548 5.81322 5.75624 5.2666L7.58958 4.12878Z" fill="#B9B9B9"/>
</svg>
