<svg width="102" height="102" viewBox="0 0 102 102" fill="none" xmlns="http://www.w3.org/2000/svg">
<g filter="url(#filter0_d_3_2023)">
<circle cx="51" cy="47" r="33" fill="white"/>
<circle cx="51" cy="47" r="32.75" stroke="black" stroke-opacity="0.15" stroke-width="0.5"/>
</g>
<g clip-path="url(#clip0_3_2023)">
<path d="M51 26C46.0826 25.993 41.3629 27.9355 37.875 31.4019C37.5738 31.7099 37.4074 32.125 37.4122 32.5558C37.4171 32.9865 37.5928 33.3978 37.9009 33.6989C38.2089 34.0001 38.624 34.1666 39.0548 34.1618C39.4856 34.1569 39.8968 33.9811 40.198 33.6731C41.6166 32.257 43.3014 31.1354 45.1553 30.373C47.0092 29.6106 48.9955 29.2224 51 29.2308C55.2291 29.2308 59.0285 30.9108 61.8037 33.6731C61.9529 33.8255 62.1305 33.9471 62.3267 34.0308C62.5228 34.1146 62.7334 34.1589 62.9467 34.1612C63.1599 34.1635 63.3715 34.1238 63.5694 34.0444C63.7673 33.9649 63.9476 33.8473 64.1 33.6981C64.2524 33.549 64.374 33.3713 64.4577 33.1752C64.5415 32.9791 64.5858 32.7684 64.5881 32.5552C64.5904 32.342 64.5507 32.1304 64.4713 31.9325C64.3918 31.7346 64.2742 31.5543 64.125 31.4019C60.6364 27.9366 55.9172 25.9943 51 26ZM51 32.4616C49.536 32.4575 48.0874 32.7609 46.7481 33.3522C45.4087 33.9435 44.2085 34.8096 43.2252 35.8942C43.0594 36.0455 42.9269 36.2297 42.8362 36.435C42.7455 36.6403 42.6986 36.8623 42.6985 37.0868C42.6983 37.3112 42.745 37.5333 42.8354 37.7387C42.9259 37.9441 43.0582 38.1284 43.2238 38.2799C43.3895 38.4313 43.5849 38.5466 43.7976 38.6184C44.0103 38.6901 44.2356 38.7167 44.4591 38.6965C44.6827 38.6763 44.8996 38.6098 45.096 38.5011C45.2924 38.3924 45.464 38.244 45.5998 38.0653C46.283 37.3129 47.1169 36.7128 48.0473 36.3039C48.9777 35.8951 49.9838 35.6867 51 35.6923C53.1436 35.6923 55.0676 36.5937 56.4019 38.0653C56.5371 38.2458 56.7086 38.396 56.9053 38.5062C57.1021 38.6164 57.3198 38.6842 57.5443 38.7053C57.7688 38.7263 57.9953 38.7 58.2091 38.6282C58.4229 38.5564 58.6193 38.4406 58.7856 38.2884C58.9519 38.1361 59.0845 37.9506 59.1749 37.744C59.2652 37.5374 59.3113 37.3141 59.3101 37.0886C59.309 36.863 59.2606 36.6403 59.1681 36.4346C59.0757 36.2289 58.9412 36.0448 58.7733 35.8942C57.7897 34.8103 56.5897 33.9447 55.2508 33.3534C53.9118 32.7621 52.4637 32.4583 51 32.4616ZM38.077 37.3077V63.1539C38.077 64.4391 38.5875 65.6718 39.4964 66.5806C40.4052 67.4894 41.6378 68 42.9231 68H59.077C60.3622 68 61.5949 67.4894 62.5037 66.5806C63.4125 65.6718 63.9231 64.4391 63.9231 63.1539V37.3077L60.6923 40.5385V59.1154C60.6923 59.3296 60.6072 59.5351 60.4558 59.6865C60.3043 59.838 60.0989 59.9231 59.8846 59.9231H42.1154C41.9012 59.9231 41.6958 59.838 41.5443 59.6865C41.3928 59.5351 41.3077 59.3296 41.3077 59.1154V40.5385L38.077 37.3077ZM51 38.9231C49.2102 38.9231 47.7693 40.3656 47.7693 42.1539C47.7693 43.9421 49.2102 45.3846 51 45.3846C51.8569 45.3846 52.6786 45.0442 53.2845 44.4384C53.8904 43.8325 54.2308 43.0107 54.2308 42.1539C54.2308 41.297 53.8904 40.4753 53.2845 39.8694C52.6786 39.2635 51.8569 38.9231 51 38.9231ZM51.8077 61.8923C52.9482 61.8923 53.877 62.8211 53.877 63.9616C53.877 65.102 52.9482 66.0309 51.8077 66.0309C51.2592 66.03 50.7333 65.8117 50.3454 65.4238C49.9576 65.0359 49.7393 64.5101 49.7384 63.9616C49.7384 62.8211 50.6673 61.8923 51.8077 61.8923Z" fill="black" fill-opacity="0.3"/>
</g>
<defs>
<filter id="filter0_d_3_2023" x="0" y="0" width="102" height="102" filterUnits="userSpaceOnUse" color-interpolation-filters="sRGB">
<feFlood flood-opacity="0" result="BackgroundImageFix"/>
<feColorMatrix in="SourceAlpha" type="matrix" values="0 0 0 0 0 0 0 0 0 0 0 0 0 0 0 0 0 0 127 0" result="hardAlpha"/>
<feOffset dy="4"/>
<feGaussianBlur stdDeviation="9"/>
<feComposite in2="hardAlpha" operator="out"/>
<feColorMatrix type="matrix" values="0 0 0 0 0 0 0 0 0 0 0 0 0 0 0 0 0 0 0.07 0"/>
<feBlend mode="normal" in2="BackgroundImageFix" result="effect1_dropShadow_3_2023"/>
<feBlend mode="normal" in="SourceGraphic" in2="effect1_dropShadow_3_2023" result="shape"/>
</filter>
<clipPath id="clip0_3_2023">
<rect width="42" height="42" fill="white" transform="translate(30 26)"/>
</clipPath>
</defs>
</svg>
