<svg width="134" height="127" viewBox="0 0 134 127" fill="none" xmlns="http://www.w3.org/2000/svg">
<path d="M131 63.3244H45.5168M15.3434 63.3244H3M15.3434 63.3244C15.3434 59.3552 16.9325 55.5485 19.7611 52.7418C22.5898 49.9351 26.4263 48.3583 30.4266 48.3583C34.4269 48.3583 38.2634 49.9351 41.0921 52.7418C43.9207 55.5485 45.5098 59.3552 45.5098 63.3244C45.5098 67.2937 43.9207 71.1004 41.0921 73.9071C38.2634 76.7138 34.4269 78.2905 30.4266 78.2905C26.4263 78.2905 22.5898 76.7138 19.7611 73.9071C16.9325 71.1004 15.3434 67.2937 15.3434 63.3244ZM131 108.683H91.2301M91.2301 108.683C91.2301 112.653 89.6371 116.464 86.8078 119.271C83.9785 122.079 80.1411 123.656 76.1399 123.656C72.1396 123.656 68.3031 122.072 65.4744 119.265C62.6458 116.459 61.0566 112.652 61.0566 108.683M91.2301 108.683C91.2301 104.713 89.6371 100.908 86.8078 98.1011C83.9785 95.2938 80.1411 93.7166 76.1399 93.7166C72.1396 93.7166 68.3031 95.2934 65.4744 98.1001C62.6458 100.907 61.0566 104.713 61.0566 108.683M61.0566 108.683H3M131 17.9661H109.517M79.3434 17.9661H3M79.3434 17.9661C79.3434 13.9969 80.9325 10.1902 83.7611 7.38347C86.5898 4.57678 90.4263 3 94.4266 3C96.4074 3 98.3687 3.38711 100.199 4.13923C102.029 4.89135 103.691 5.99374 105.092 7.38347C106.493 8.77321 107.604 10.4231 108.362 12.2388C109.12 14.0546 109.51 16.0007 109.51 17.9661C109.51 19.9315 109.12 21.8776 108.362 23.6934C107.604 25.5092 106.493 27.159 105.092 28.5488C103.691 29.9385 102.029 31.0409 100.199 31.793C98.3687 32.5451 96.4074 32.9322 94.4266 32.9322C90.4263 32.9322 86.5898 31.3554 83.7611 28.5488C80.9325 25.7421 79.3434 21.9354 79.3434 17.9661Z" stroke="black" stroke-width="6" stroke-miterlimit="10" stroke-linecap="round"/>
</svg>
