<svg width="20" height="20" viewBox="0 0 20 20" fill="none" xmlns="http://www.w3.org/2000/svg">
<path d="M7.24968 14.8125C6.86998 14.8125 6.56218 15.1203 6.56218 15.5C6.56218 15.8797 6.86998 16.1875 7.24968 16.1875H12.7497C13.1294 16.1875 13.4372 15.8797 13.4372 15.5C13.4372 15.1203 13.1294 14.8125 12.7497 14.8125H7.24968Z" fill="#1E73FF"/>
<path fill-rule="evenodd" clip-rule="evenodd" d="M9.99968 0.145874C9.35057 0.145874 8.76083 0.331792 8.12102 0.642927C7.50253 0.943691 6.78806 1.38712 5.89563 1.941L4.00127 3.1167C3.15684 3.64077 2.48066 4.06041 1.9595 4.45953C1.41981 4.87284 1.00529 5.29377 0.705875 5.84079C0.407083 6.38665 0.272528 6.96747 0.208015 7.65402C0.145495 8.31937 0.145501 9.13298 0.145508 10.1533V11.6316C0.145495 13.3768 0.145485 14.7544 0.285486 15.8315C0.429099 16.9364 0.730857 17.8284 1.41267 18.5337C2.09763 19.2422 2.96926 19.5587 4.04831 19.7088C5.09412 19.8542 6.42977 19.8542 8.11303 19.8542H11.8863C13.5695 19.8542 14.9052 19.8542 15.951 19.7088C17.0301 19.5587 17.9017 19.2422 18.5867 18.5337C19.2685 17.8284 19.5703 16.9364 19.7139 15.8315C19.8539 14.7544 19.8539 13.3768 19.8538 11.6316V10.1533C19.8538 9.133 19.8539 8.31935 19.7913 7.65402C19.7268 6.96747 19.5923 6.38665 19.2935 5.84079C18.9941 5.29377 18.5795 4.87284 18.0398 4.45953C17.5187 4.06041 16.8425 3.64077 15.9981 3.11671L14.1037 1.941C13.2113 1.38712 12.4968 0.943688 11.8783 0.642927C11.2385 0.331792 10.6488 0.145874 9.99968 0.145874ZM6.58924 3.12882C7.52036 2.55094 8.17505 2.14561 8.72234 1.87947C9.25555 1.62017 9.63317 1.52087 9.99968 1.52087C10.3662 1.52087 10.7438 1.62017 11.277 1.87947C11.8243 2.14561 12.479 2.55094 13.4101 3.12881L15.2434 4.26663C16.1242 4.81326 16.7426 5.19794 17.2038 5.55118C17.6526 5.89488 17.9108 6.17851 18.0873 6.50099C18.2645 6.82461 18.3679 7.20297 18.4224 7.78266C18.4781 8.37625 18.4788 9.12537 18.4788 10.187V11.5812C18.4788 13.388 18.4775 14.6761 18.3503 15.6543C18.2255 16.615 17.9902 17.1724 17.5981 17.578C17.2091 17.9804 16.6796 18.2192 15.7616 18.3469C14.8215 18.4776 13.5816 18.4792 11.833 18.4792H8.16634C6.41777 18.4792 5.17785 18.4776 4.23771 18.3469C3.31979 18.2192 2.79022 17.9804 2.40123 17.578C2.0091 17.1724 1.77389 16.615 1.64902 15.6543C1.52187 14.6761 1.52051 13.388 1.52051 11.5812V10.187C1.52051 9.12537 1.52121 8.37625 1.57698 7.78266C1.63146 7.20297 1.73487 6.82461 1.91201 6.50099C2.08852 6.17851 2.34672 5.89488 2.79552 5.55118C3.25677 5.19794 3.87514 4.81326 4.75591 4.26663L6.58924 3.12882Z" fill="#1E73FF"/>
</svg>
