<svg width="23" height="22" viewBox="0 0 23 22" fill="none" xmlns="http://www.w3.org/2000/svg">
<g id="Outline / Users / User Rounded">
<g id="Vector">
<path fill-rule="evenodd" clip-rule="evenodd" d="M11.5 1.146C9.09524 1.146 7.14581 3.09542 7.14581 5.50016C7.14581 7.9049 9.09524 9.85433 11.5 9.85433C13.9047 9.85433 15.8541 7.9049 15.8541 5.50016C15.8541 3.09542 13.9047 1.146 11.5 1.146ZM8.52081 5.50016C8.52081 3.85481 9.85463 2.521 11.5 2.521C13.1453 2.521 14.4791 3.85481 14.4791 5.50016C14.4791 7.14551 13.1453 8.47933 11.5 8.47933C9.85463 8.47933 8.52081 7.14551 8.52081 5.50016Z" fill="#1E73FF"/>
<path fill-rule="evenodd" clip-rule="evenodd" d="M11.5 11.2293C9.63059 11.2293 7.90437 11.6609 6.62162 12.3939C5.35831 13.1157 4.39581 14.2178 4.39581 15.5835C4.39581 16.9492 5.35831 18.0512 6.62162 18.7731C7.90437 19.5061 9.63059 19.9377 11.5 19.9377C13.3694 19.9377 15.0956 19.5061 16.3783 18.7731C17.6416 18.0512 18.6041 16.9492 18.6041 15.5835C18.6041 14.2178 17.6416 13.1157 16.3783 12.3939C15.0956 11.6609 13.3694 11.2293 11.5 11.2293ZM5.77081 15.5835C5.77081 14.9242 6.24474 14.1929 7.30381 13.5877C8.34343 12.9936 9.82554 12.6043 11.5 12.6043C13.1744 12.6043 14.6565 12.9936 15.6962 13.5877C16.7552 14.1929 17.2291 14.9242 17.2291 15.5835C17.2291 16.2428 16.7552 16.9741 15.6962 17.5793C14.6565 18.1734 13.1744 18.5627 11.5 18.5627C9.82554 18.5627 8.34343 18.1734 7.30381 17.5793C6.24474 16.9741 5.77081 16.2428 5.77081 15.5835Z" fill="#1E73FF"/>
</g>
</g>
</svg>
