<svg width="110" height="49" viewBox="0 0 110 49" fill="none" xmlns="http://www.w3.org/2000/svg">
<g id="social login">
<g id="facebook">
<g id="Ellipse f">
<path id="Vector" d="M85.3996 48.0814C98.544 48.0814 109.2 37.4231 109.2 24.2753C109.2 11.1276 98.544 0.469238 85.3996 0.469238C72.2552 0.469238 61.5996 11.1276 61.5996 24.2753C61.5996 37.4231 72.2552 48.0814 85.3996 48.0814Z" fill="white"/>
<path id="Vector_2" d="M85.3992 47.6053C98.2807 47.6053 108.723 37.1601 108.723 24.2753C108.723 11.3905 98.2807 0.945312 85.3992 0.945312C72.5177 0.945312 62.0752 11.3905 62.0752 24.2753C62.0752 37.1601 72.5177 47.6053 85.3992 47.6053Z" stroke="#E6E6E6" stroke-width="0.834112"/>
</g>
<path id="f" d="M90.5806 21.0683H86.9373V18.4087C86.9373 17.5936 87.7807 17.4041 88.1749 17.4041H90.5282V13.8151L87.8302 13.8008C84.1508 13.8008 83.3101 16.4766 83.3101 18.1925V21.0683H80.6445V24.7668H83.3101V34.7502H86.9373V24.7668H90.0179L90.5806 21.0683Z" fill="#3B5998"/>
</g>
<g id="gmail">
<g id="Ellipse g">
<path id="Vector_3" d="M23.8 48.0814C36.9444 48.0814 47.6 37.4231 47.6 24.2753C47.6 11.1276 36.9444 0.469238 23.8 0.469238C10.6556 0.469238 0 11.1276 0 24.2753C0 37.4231 10.6556 48.0814 23.8 48.0814Z" fill="white"/>
<path id="Vector_4" d="M23.7996 47.6053C36.6811 47.6053 47.1236 37.1601 47.1236 24.2753C47.1236 11.3905 36.6811 0.945312 23.7996 0.945312C10.9181 0.945312 0.475586 11.3905 0.475586 24.2753C0.475586 37.1601 10.9181 47.6053 23.7996 47.6053Z" stroke="#E6E6E6" stroke-width="0.834112"/>
</g>
<g id="Group 90">
<path id="y" d="M17.9701 26.4607L17.2409 29.1822L14.5753 29.2384C13.7692 27.7369 13.3409 26.0615 13.3275 24.3572C13.314 22.653 13.7158 20.9711 14.4982 19.457L16.8705 19.8922L17.9111 22.2499C17.4437 23.6175 17.4646 25.1049 17.9701 26.4588V26.4607Z" fill="#FBBB00"/>
<path id="b" d="M34.0891 22.3184C34.4441 24.186 34.2842 26.1151 33.6267 27.8988C32.9691 29.6826 31.8386 31.2536 30.3563 32.4436L27.368 32.2913L26.9453 29.6507C28.1793 28.9272 29.1274 27.8017 29.6309 26.4625H24.0312V22.3184H34.0901H34.0891Z" fill="#518EF8"/>
<path id="g" d="M30.3556 32.4433C29.1574 33.4058 27.7622 34.0927 26.2689 34.4554C24.7756 34.818 23.2208 34.8475 21.7148 34.5417C20.2088 34.2358 18.7886 33.6022 17.5549 32.6858C16.3212 31.7694 15.3042 30.5927 14.5762 29.2391L17.9701 26.4604C18.2887 27.31 18.789 28.0797 19.436 28.7157C20.083 29.3517 20.8611 29.8386 21.7158 30.1424C22.5706 30.4463 23.4814 30.5597 24.3846 30.4747C25.2877 30.3897 26.1614 30.1084 26.9446 29.6504L30.3556 32.4433Z" fill="#28B446"/>
<path id="r" d="M30.4841 16.2117L27.0921 18.9904C26.2974 18.4952 25.4013 18.1856 24.4704 18.0848C23.5396 17.9839 22.598 18.0942 21.7157 18.4077C20.8334 18.7211 20.0331 19.2295 19.3744 19.8951C18.7157 20.5606 18.2155 21.3662 17.911 22.2518L14.5 19.4579C15.2194 18.0683 16.241 16.8575 17.4896 15.9146C18.7383 14.9717 20.1823 14.3206 21.7155 14.0093C23.2487 13.6979 24.8322 13.7341 26.3496 14.1152C27.8671 14.4964 29.2798 15.2127 30.4841 16.2117Z" fill="#F14336"/>
</g>
</g>
</g>
</svg>
