<svg width="20" height="20" viewBox="0 0 20 20" fill="none" xmlns="http://www.w3.org/2000/svg">
<path fill-rule="evenodd" clip-rule="evenodd" d="M9.54183 1.521C5.11205 1.521 1.521 5.11205 1.521 9.54183C1.521 13.9716 5.11205 17.5627 9.54183 17.5627C13.9716 17.5627 17.5627 13.9716 17.5627 9.54183C17.5627 5.11205 13.9716 1.521 9.54183 1.521ZM0.145996 9.54183C0.145996 4.35265 4.35265 0.145996 9.54183 0.145996C14.731 0.145996 18.9377 4.35265 18.9377 9.54183C18.9377 11.889 18.077 14.0351 16.6541 15.6819L19.653 18.6807C19.9215 18.9492 19.9215 19.3845 19.653 19.653C19.3845 19.9215 18.9492 19.9215 18.6807 19.653L15.6819 16.6541C14.0351 18.077 11.889 18.9377 9.54183 18.9377C4.35265 18.9377 0.145996 14.731 0.145996 9.54183Z" fill="black" fill-opacity="0.3"/>
</svg>
