<svg width="22" height="22" viewBox="0 0 22 22" fill="none" xmlns="http://www.w3.org/2000/svg">
<g id="Outline / Time / Hourglass">
<path id="Vector" fill-rule="evenodd" clip-rule="evenodd" d="M10.9428 1.146H11.0573C12.9032 1.14598 14.36 1.14597 15.4211 1.28587C16.4641 1.42338 17.4011 1.72642 17.8462 2.59053C17.9103 2.71503 17.9644 2.8444 18.008 2.97745C18.3117 3.90418 17.8623 4.77954 17.2223 5.60804C16.5714 6.45059 15.5409 7.47109 14.2362 8.76309L11.9771 11.0002L14.2362 13.2372C15.5409 14.5292 16.5714 15.5497 17.2223 16.3923C17.8623 17.2208 18.3117 18.0961 18.008 19.0229C17.9644 19.1559 17.9103 19.2853 17.8462 19.4098C17.4011 20.2739 16.4641 20.5769 15.4211 20.7145C14.36 20.8544 12.9032 20.8543 11.0573 20.8543H10.9429C9.09693 20.8543 7.6401 20.8544 6.579 20.7145C5.53606 20.5769 4.59897 20.2739 4.15392 19.4098C4.0898 19.2853 4.03568 19.1559 3.99208 19.0229C3.68842 18.0961 4.13779 17.2208 4.77782 16.3923C5.42871 15.5497 6.45925 14.5292 7.76396 13.2372L10.023 11.0002L7.76397 8.7631C6.45925 7.4711 5.42871 6.4506 4.77783 5.60804C4.13779 4.77954 3.68842 3.90418 3.99208 2.97745C4.03568 2.84441 4.0898 2.71503 4.15392 2.59053C4.59897 1.72642 5.53606 1.42338 6.579 1.28587C7.6401 1.14597 9.09692 1.14598 10.9428 1.146ZM11.0001 10.0326L13.2275 7.8268C14.5823 6.48521 15.5461 5.52862 16.1342 4.76745C16.7399 3.98339 16.7727 3.62331 16.7014 3.4056C16.6805 3.3419 16.6546 3.27988 16.6238 3.22011C16.5168 3.0124 16.2307 2.77952 15.2414 2.64908C14.2811 2.52247 12.9156 2.521 11.0001 2.521C9.0845 2.521 7.71901 2.52247 6.75874 2.64908C5.76937 2.77952 5.48329 3.0124 5.37632 3.22011C5.34554 3.27987 5.3196 3.3419 5.29873 3.4056C5.22739 3.62331 5.26026 3.98339 5.86595 4.76745C6.45397 5.52863 7.41782 6.48522 8.77259 7.8268L11.0001 10.0326ZM11.0001 11.9677L8.77259 14.1735C7.41782 15.5151 6.45397 16.4717 5.86595 17.2329C5.26026 18.0169 5.22739 18.377 5.29873 18.5947C5.3196 18.6584 5.34554 18.7204 5.37632 18.7802C5.4833 18.9879 5.76937 19.2208 6.75874 19.3512C7.71901 19.4779 9.0845 19.4793 11.0001 19.4793C12.9156 19.4793 14.2811 19.4779 15.2414 19.3512C16.2307 19.2208 16.5168 18.9879 16.6238 18.7802C16.6546 18.7204 16.6805 18.6584 16.7014 18.5947C16.7727 18.377 16.7399 18.0169 16.1342 17.2329C15.5461 16.4717 14.5823 15.5151 13.2275 14.1735L11.0001 11.9677Z" fill="#1E73FF"/>
</g>
</svg>
