<svg width="15" height="18" viewBox="0 0 15 18" fill="none" xmlns="http://www.w3.org/2000/svg">
<path id="Vector" fill-rule="evenodd" clip-rule="evenodd" d="M0 7.44555C0 3.34404 3.26931 0 7.32558 0C11.3819 0 14.6512 3.34404 14.6512 7.44555C14.6512 9.42563 14.0869 11.5517 13.0893 13.3885C12.093 15.2231 10.6373 16.8172 8.81624 17.6684C7.87024 18.1105 6.78092 18.1105 5.83492 17.6684C4.01389 16.8172 2.55819 15.2231 1.56186 13.3885C0.564303 11.5517 0 9.42563 0 7.44555ZM7.32558 1.25581C3.9838 1.25581 1.25581 4.0165 1.25581 7.44555C1.25581 9.20124 1.76034 11.1227 2.66543 12.7892C3.57174 14.458 4.85248 15.823 6.36668 16.5307C6.97567 16.8153 7.67549 16.8153 8.28448 16.5307C9.79868 15.823 11.0794 14.458 11.9857 12.7892C12.8908 11.1227 13.3953 9.20124 13.3953 7.44555C13.3953 4.0165 10.6674 1.25581 7.32558 1.25581ZM7.32558 5.44186C6.28523 5.44186 5.44186 6.28523 5.44186 7.32558C5.44186 8.36593 6.28523 9.2093 7.32558 9.2093C8.36593 9.2093 9.2093 8.36593 9.2093 7.32558C9.2093 6.28523 8.36593 5.44186 7.32558 5.44186ZM4.18605 7.32558C4.18605 5.59166 5.59166 4.18605 7.32558 4.18605C9.0595 4.18605 10.4651 5.59166 10.4651 7.32558C10.4651 9.0595 9.0595 10.4651 7.32558 10.4651C5.59166 10.4651 4.18605 9.0595 4.18605 7.32558Z" fill="#1E73FF"/>
</svg>
