<svg width="23" height="22" viewBox="0 0 23 22" fill="none" xmlns="http://www.w3.org/2000/svg">
<g id="Outline / Users / User Rounded">
<g id="Vector">
<path fill-rule="evenodd" clip-rule="evenodd" d="M11.4999 1.146C9.09518 1.146 7.14575 3.09542 7.14575 5.50016C7.14575 7.9049 9.09518 9.85433 11.4999 9.85433C13.9047 9.85433 15.8541 7.9049 15.8541 5.50016C15.8541 3.09542 13.9047 1.146 11.4999 1.146ZM8.52075 5.50016C8.52075 3.85481 9.85457 2.521 11.4999 2.521C13.1453 2.521 14.4791 3.85481 14.4791 5.50016C14.4791 7.14551 13.1453 8.47933 11.4999 8.47933C9.85457 8.47933 8.52075 7.14551 8.52075 5.50016Z" fill="black" fill-opacity="0.3"/>
<path fill-rule="evenodd" clip-rule="evenodd" d="M11.4999 11.2293C9.63053 11.2293 7.90431 11.6609 6.62155 12.3939C5.35825 13.1157 4.39575 14.2178 4.39575 15.5835C4.39575 16.9492 5.35825 18.0512 6.62155 18.7731C7.90431 19.5061 9.63053 19.9377 11.4999 19.9377C13.3693 19.9377 15.0955 19.5061 16.3783 18.7731C17.6416 18.0512 18.6041 16.9492 18.6041 15.5835C18.6041 14.2178 17.6416 13.1157 16.3783 12.3939C15.0955 11.6609 13.3693 11.2293 11.4999 11.2293ZM5.77075 15.5835C5.77075 14.9242 6.24467 14.1929 7.30375 13.5877C8.34337 12.9936 9.82548 12.6043 11.4999 12.6043C13.1744 12.6043 14.6565 12.9936 15.6961 13.5877C16.7552 14.1929 17.2291 14.9242 17.2291 15.5835C17.2291 16.2428 16.7552 16.9741 15.6961 17.5793C14.6565 18.1734 13.1744 18.5627 11.4999 18.5627C9.82548 18.5627 8.34337 18.1734 7.30375 17.5793C6.24467 16.9741 5.77075 16.2428 5.77075 15.5835Z" fill="black" fill-opacity="0.3"/>
</g>
</g>
</svg>
