<svg xmlns="http://www.w3.org/2000/svg" viewBox="0 0 47.6 47.6"><defs><style>.cls-1{fill:#fff;}.cls-2{fill:none;stroke:#e6e6e6;stroke-width:0.83px;}.cls-3{fill:#3b5998;}</style></defs><g id="Layer_2" data-name="Layer 2"><g id="Layer_1-2" data-name="Layer 1"><g id="Ellipse_f" data-name="Ellipse f"><path id="Vector" class="cls-1" d="M23.8,47.6A23.8,23.8,0,1,0,0,23.8,23.86,23.86,0,0,0,23.8,47.6Z"/><path id="Vector_2" data-name="Vector 2" class="cls-2" d="M23.8,47.1A23.3,23.3,0,1,0,.5,23.8,23.26,23.26,0,0,0,23.8,47.1Z"/></g><path id="f" class="cls-3" d="M29,20.6H25.4V17.9c0-.8.8-1,1.2-1H29V13.3H26.3a4.12,4.12,0,0,0-4.5,4.4v2.9H19.1v3.7h2.7v10h3.6v-10h3Z"/></g></g></svg>