<svg xmlns="http://www.w3.org/2000/svg" viewBox="0 0 47.6 47.6"><defs><style>.cls-1{fill:#fff;}.cls-2{fill:none;stroke:#e6e6e6;stroke-width:0.83px;}.cls-3{fill:#fbbb00;}.cls-4{fill:#518ef8;}.cls-5{fill:#28b446;}.cls-6{fill:#f14336;}</style></defs><g id="Layer_2" data-name="Layer 2"><g id="Layer_1-2" data-name="Layer 1"><g id="Ellipse_g" data-name="Ellipse g"><path id="Vector_3" data-name="Vector 3" class="cls-1" d="M23.8,47.6A23.8,23.8,0,1,0,0,23.8,23.86,23.86,0,0,0,23.8,47.6Z"/><path id="Vector_4" data-name="Vector 4" class="cls-2" d="M23.8,47.1A23.3,23.3,0,1,0,.5,23.8,23.26,23.26,0,0,0,23.8,47.1Z"/></g><g id="Group_90" data-name="Group 90"><path id="y" class="cls-3" d="M18,26l-.7,2.7-2.7.1a10.6,10.6,0,0,1,0-9.8l2.4.4,1,2.4A5.55,5.55,0,0,0,18,26Z"/><path id="b" class="cls-4" d="M34.1,21.8a9.75,9.75,0,0,1-.5,5.6,10,10,0,0,1-3.3,4.5l-3-.2-.4-2.6a6.11,6.11,0,0,0,2.7-3.2H24V21.8Z"/><path id="g" class="cls-5" d="M30.4,31.9a10.47,10.47,0,0,1-4.1,2,10.18,10.18,0,0,1-4.6.1,10,10,0,0,1-4.2-1.9,10.84,10.84,0,0,1-3-3.4l3.4-2.8a6.51,6.51,0,0,0,1.5,2.3,5.94,5.94,0,0,0,2.3,1.4,6.26,6.26,0,0,0,2.7.3,7.86,7.86,0,0,0,2.6-.8Z"/><path id="r" class="cls-6" d="M30.5,15.7l-3.4,2.8a6.22,6.22,0,0,0-2.6-.9,6.72,6.72,0,0,0-2.8.3,5.13,5.13,0,0,0-2.3,1.5,6.08,6.08,0,0,0-1.5,2.4L14.5,19a9.22,9.22,0,0,1,3-3.5,10.69,10.69,0,0,1,4.2-1.9,10.21,10.21,0,0,1,4.6.1A9.12,9.12,0,0,1,30.5,15.7Z"/></g></g></g></svg>