<svg width="296" height="308" viewBox="0 0 296 308" fill="none" xmlns="http://www.w3.org/2000/svg">
<g filter="url(#filter0_d_920_524)">
<rect x="18" y="14" width="260" height="272" rx="10" fill="white"/>
<rect x="18.5" y="14.5" width="259" height="271" rx="9.5" stroke="black" stroke-opacity="0.1"/>
</g>
<g clip-path="url(#clip0_920_524)">
<path d="M123.34 160.75C130.797 157.101 139.233 155.182 147.817 155.182C156.401 155.182 164.837 157.101 172.295 160.75M109.305 140.999C121.053 135.296 134.32 132.299 147.817 132.299C161.314 132.299 174.581 135.296 186.329 140.999M95.2708 121.305C111.265 113.442 129.375 109.3 147.808 109.29C166.241 109.28 184.358 113.402 200.364 121.248M81.3027 101.555C101.56 91.6229 124.487 86.399 147.817 86.399C171.147 86.399 194.074 91.6229 214.332 101.555" stroke="#1E73FF" stroke-width="4.76522" stroke-linecap="round" stroke-linejoin="round"/>
</g>
<path d="M81.1965 210.88V212.368H78.2365V222H76.4125V212.368H73.4365V210.88H81.1965ZM82.4358 217.552C82.4358 216.667 82.6171 215.883 82.9798 215.2C83.3531 214.517 83.8544 213.989 84.4838 213.616C85.1238 213.232 85.8278 213.04 86.5958 213.04C87.2891 213.04 87.8918 213.179 88.4038 213.456C88.9264 213.723 89.3424 214.059 89.6518 214.464V213.184H91.4918V222H89.6518V220.688C89.3424 221.104 88.9211 221.451 88.3878 221.728C87.8544 222.005 87.2464 222.144 86.5638 222.144C85.8064 222.144 85.1131 221.952 84.4838 221.568C83.8544 221.173 83.3531 220.629 82.9798 219.936C82.6171 219.232 82.4358 218.437 82.4358 217.552ZM89.6518 217.584C89.6518 216.976 89.5238 216.448 89.2678 216C89.0224 215.552 88.6971 215.211 88.2918 214.976C87.8864 214.741 87.4491 214.624 86.9798 214.624C86.5104 214.624 86.0731 214.741 85.6678 214.976C85.2624 215.2 84.9318 215.536 84.6758 215.984C84.4304 216.421 84.3078 216.944 84.3078 217.552C84.3078 218.16 84.4304 218.693 84.6758 219.152C84.9318 219.611 85.2624 219.963 85.6678 220.208C86.0838 220.443 86.5211 220.56 86.9798 220.56C87.4491 220.56 87.8864 220.443 88.2918 220.208C88.6971 219.973 89.0224 219.632 89.2678 219.184C89.5238 218.725 89.6518 218.192 89.6518 217.584ZM95.7115 214.48C96.0208 214.075 96.4422 213.733 96.9755 213.456C97.5088 213.179 98.1115 213.04 98.7835 213.04C99.5515 213.04 100.25 213.232 100.88 213.616C101.52 213.989 102.021 214.517 102.384 215.2C102.746 215.883 102.928 216.667 102.928 217.552C102.928 218.437 102.746 219.232 102.384 219.936C102.021 220.629 101.52 221.173 100.88 221.568C100.25 221.952 99.5515 222.144 98.7835 222.144C98.1115 222.144 97.5142 222.011 96.9915 221.744C96.4688 221.467 96.0422 221.125 95.7115 220.72V226.192H93.8875V213.184H95.7115V214.48ZM101.072 217.552C101.072 216.944 100.944 216.421 100.688 215.984C100.442 215.536 100.112 215.2 99.6955 214.976C99.2902 214.741 98.8528 214.624 98.3835 214.624C97.9248 214.624 97.4875 214.741 97.0715 214.976C96.6662 215.211 96.3355 215.552 96.0795 216C95.8342 216.448 95.7115 216.976 95.7115 217.584C95.7115 218.192 95.8342 218.725 96.0795 219.184C96.3355 219.632 96.6662 219.973 97.0715 220.208C97.4875 220.443 97.9248 220.56 98.3835 220.56C98.8528 220.56 99.2902 220.443 99.6955 220.208C100.112 219.963 100.442 219.611 100.688 219.152C100.944 218.693 101.072 218.16 101.072 217.552ZM116.824 213.184L111.416 226.144H109.528L111.32 221.856L107.848 213.184H109.88L112.36 219.904L114.936 213.184H116.824ZM122.024 222.144C121.192 222.144 120.44 221.957 119.768 221.584C119.096 221.2 118.568 220.667 118.184 219.984C117.8 219.291 117.608 218.491 117.608 217.584C117.608 216.688 117.805 215.893 118.2 215.2C118.595 214.507 119.133 213.973 119.816 213.6C120.499 213.227 121.261 213.04 122.104 213.04C122.947 213.04 123.709 213.227 124.392 213.6C125.075 213.973 125.613 214.507 126.008 215.2C126.403 215.893 126.6 216.688 126.6 217.584C126.6 218.48 126.397 219.275 125.992 219.968C125.587 220.661 125.032 221.2 124.328 221.584C123.635 221.957 122.867 222.144 122.024 222.144ZM122.024 220.56C122.493 220.56 122.931 220.448 123.336 220.224C123.752 220 124.088 219.664 124.344 219.216C124.6 218.768 124.728 218.224 124.728 217.584C124.728 216.944 124.605 216.405 124.36 215.968C124.115 215.52 123.789 215.184 123.384 214.96C122.979 214.736 122.541 214.624 122.072 214.624C121.603 214.624 121.165 214.736 120.76 214.96C120.365 215.184 120.051 215.52 119.816 215.968C119.581 216.405 119.464 216.944 119.464 217.584C119.464 218.533 119.704 219.269 120.184 219.792C120.675 220.304 121.288 220.56 122.024 220.56ZM136.387 213.184V222H134.563V220.96C134.275 221.323 133.896 221.611 133.427 221.824C132.968 222.027 132.478 222.128 131.955 222.128C131.262 222.128 130.638 221.984 130.083 221.696C129.539 221.408 129.107 220.981 128.787 220.416C128.478 219.851 128.323 219.168 128.323 218.368V213.184H130.131V218.096C130.131 218.885 130.328 219.493 130.723 219.92C131.118 220.336 131.656 220.544 132.339 220.544C133.022 220.544 133.56 220.336 133.955 219.92C134.36 219.493 134.563 218.885 134.563 218.096V213.184H136.387ZM140.618 214.464C140.884 214.016 141.236 213.669 141.674 213.424C142.122 213.168 142.65 213.04 143.258 213.04V214.928H142.794C142.079 214.928 141.535 215.109 141.162 215.472C140.799 215.835 140.618 216.464 140.618 217.36V222H138.794V213.184H140.618V214.464ZM159.763 213.04C160.456 213.04 161.075 213.184 161.619 213.472C162.173 213.76 162.605 214.187 162.915 214.752C163.235 215.317 163.395 216 163.395 216.8V222H161.587V217.072C161.587 216.283 161.389 215.68 160.995 215.264C160.6 214.837 160.061 214.624 159.379 214.624C158.696 214.624 158.152 214.837 157.747 215.264C157.352 215.68 157.155 216.283 157.155 217.072V222H155.347V217.072C155.347 216.283 155.149 215.68 154.755 215.264C154.36 214.837 153.821 214.624 153.139 214.624C152.456 214.624 151.912 214.837 151.507 215.264C151.112 215.68 150.915 216.283 150.915 217.072V222H149.091V213.184H150.915V214.192C151.213 213.829 151.592 213.547 152.051 213.344C152.509 213.141 153 213.04 153.523 213.04C154.227 213.04 154.856 213.189 155.411 213.488C155.965 213.787 156.392 214.219 156.691 214.784C156.957 214.251 157.373 213.829 157.939 213.52C158.504 213.2 159.112 213.04 159.763 213.04ZM169.54 222.144C168.708 222.144 167.956 221.957 167.284 221.584C166.612 221.2 166.084 220.667 165.7 219.984C165.316 219.291 165.124 218.491 165.124 217.584C165.124 216.688 165.321 215.893 165.716 215.2C166.11 214.507 166.649 213.973 167.332 213.6C168.014 213.227 168.777 213.04 169.62 213.04C170.462 213.04 171.225 213.227 171.908 213.6C172.59 213.973 173.129 214.507 173.524 215.2C173.918 215.893 174.116 216.688 174.116 217.584C174.116 218.48 173.913 219.275 173.508 219.968C173.102 220.661 172.548 221.2 171.844 221.584C171.15 221.957 170.382 222.144 169.54 222.144ZM169.54 220.56C170.009 220.56 170.446 220.448 170.852 220.224C171.268 220 171.604 219.664 171.86 219.216C172.116 218.768 172.244 218.224 172.244 217.584C172.244 216.944 172.121 216.405 171.876 215.968C171.63 215.52 171.305 215.184 170.9 214.96C170.494 214.736 170.057 214.624 169.588 214.624C169.118 214.624 168.681 214.736 168.276 214.96C167.881 215.184 167.566 215.52 167.332 215.968C167.097 216.405 166.98 216.944 166.98 217.584C166.98 218.533 167.22 219.269 167.7 219.792C168.19 220.304 168.804 220.56 169.54 220.56ZM177.743 214.496C178.052 214.069 178.473 213.723 179.007 213.456C179.551 213.179 180.153 213.04 180.815 213.04C181.593 213.04 182.297 213.227 182.927 213.6C183.556 213.973 184.052 214.507 184.415 215.2C184.777 215.883 184.959 216.667 184.959 217.552C184.959 218.437 184.777 219.232 184.415 219.936C184.052 220.629 183.551 221.173 182.911 221.568C182.281 221.952 181.583 222.144 180.815 222.144C180.132 222.144 179.524 222.011 178.991 221.744C178.468 221.477 178.052 221.136 177.743 220.72V222H175.919V210.16H177.743V214.496ZM183.103 217.552C183.103 216.944 182.975 216.421 182.719 215.984C182.473 215.536 182.143 215.2 181.727 214.976C181.321 214.741 180.884 214.624 180.415 214.624C179.956 214.624 179.519 214.741 179.103 214.976C178.697 215.211 178.367 215.552 178.111 216C177.865 216.448 177.743 216.976 177.743 217.584C177.743 218.192 177.865 218.725 178.111 219.184C178.367 219.632 178.697 219.973 179.103 220.208C179.519 220.443 179.956 220.56 180.415 220.56C180.884 220.56 181.321 220.443 181.727 220.208C182.143 219.963 182.473 219.611 182.719 219.152C182.975 218.693 183.103 218.16 183.103 217.552ZM187.691 212.016C187.36 212.016 187.083 211.904 186.859 211.68C186.635 211.456 186.523 211.179 186.523 210.848C186.523 210.517 186.635 210.24 186.859 210.016C187.083 209.792 187.36 209.68 187.691 209.68C188.011 209.68 188.283 209.792 188.507 210.016C188.731 210.24 188.843 210.517 188.843 210.848C188.843 211.179 188.731 211.456 188.507 211.68C188.283 211.904 188.011 212.016 187.691 212.016ZM188.587 213.184V222H186.763V213.184H188.587ZM192.805 210.16V222H190.981V210.16H192.805ZM203.28 217.376C203.28 217.707 203.259 218.005 203.216 218.272H196.48C196.533 218.976 196.795 219.541 197.264 219.968C197.733 220.395 198.309 220.608 198.992 220.608C199.973 220.608 200.667 220.197 201.072 219.376H203.04C202.773 220.187 202.288 220.853 201.584 221.376C200.891 221.888 200.027 222.144 198.992 222.144C198.149 222.144 197.392 221.957 196.72 221.584C196.059 221.2 195.536 220.667 195.152 219.984C194.779 219.291 194.592 218.491 194.592 217.584C194.592 216.677 194.773 215.883 195.136 215.2C195.509 214.507 196.027 213.973 196.688 213.6C197.36 213.227 198.128 213.04 198.992 213.04C199.824 213.04 200.565 213.221 201.216 213.584C201.867 213.947 202.373 214.459 202.736 215.12C203.099 215.771 203.28 216.523 203.28 217.376ZM201.376 216.8C201.365 216.128 201.125 215.589 200.656 215.184C200.187 214.779 199.605 214.576 198.912 214.576C198.283 214.576 197.744 214.779 197.296 215.184C196.848 215.579 196.581 216.117 196.496 216.8H201.376ZM211.359 214.672V219.552C211.359 219.883 211.434 220.123 211.583 220.272C211.743 220.411 212.01 220.48 212.383 220.48H213.503V222H212.063C211.242 222 210.613 221.808 210.175 221.424C209.738 221.04 209.519 220.416 209.519 219.552V214.672H208.479V213.184H209.519V210.992H211.359V213.184H213.503V214.672H211.359ZM219.008 222.144C218.176 222.144 217.424 221.957 216.752 221.584C216.08 221.2 215.552 220.667 215.168 219.984C214.784 219.291 214.592 218.491 214.592 217.584C214.592 216.688 214.79 215.893 215.184 215.2C215.579 214.507 216.118 213.973 216.8 213.6C217.483 213.227 218.246 213.04 219.088 213.04C219.931 213.04 220.694 213.227 221.376 213.6C222.059 213.973 222.598 214.507 222.992 215.2C223.387 215.893 223.584 216.688 223.584 217.584C223.584 218.48 223.382 219.275 222.976 219.968C222.571 220.661 222.016 221.2 221.312 221.584C220.619 221.957 219.851 222.144 219.008 222.144ZM219.008 220.56C219.478 220.56 219.915 220.448 220.32 220.224C220.736 220 221.072 219.664 221.328 219.216C221.584 218.768 221.712 218.224 221.712 217.584C221.712 216.944 221.59 216.405 221.344 215.968C221.099 215.52 220.774 215.184 220.368 214.96C219.963 214.736 219.526 214.624 219.056 214.624C218.587 214.624 218.15 214.736 217.744 214.96C217.35 215.184 217.035 215.52 216.8 215.968C216.566 216.405 216.448 216.944 216.448 217.584C216.448 218.533 216.688 219.269 217.168 219.792C217.659 220.304 218.272 220.56 219.008 220.56ZM91.6796 238.672V243.552C91.6796 243.883 91.7542 244.123 91.9036 244.272C92.0636 244.411 92.3302 244.48 92.7036 244.48H93.8236V246H92.3836C91.5622 246 90.9329 245.808 90.4956 245.424C90.0582 245.04 89.8396 244.416 89.8396 243.552V238.672H88.7996V237.184H89.8396V234.992H91.6796V237.184H93.8236V238.672H91.6796ZM100.065 237.04C100.737 237.04 101.334 237.184 101.857 237.472C102.39 237.76 102.806 238.187 103.105 238.752C103.414 239.317 103.569 240 103.569 240.8V246H101.761V241.072C101.761 240.283 101.563 239.68 101.169 239.264C100.774 238.837 100.235 238.624 99.5527 238.624C98.87 238.624 98.326 238.837 97.9207 239.264C97.526 239.68 97.3287 240.283 97.3287 241.072V246H95.5047V234.16H97.3287V238.208C97.638 237.835 98.0274 237.547 98.4967 237.344C98.9767 237.141 99.4994 237.04 100.065 237.04ZM113.975 241.376C113.975 241.707 113.954 242.005 113.911 242.272H107.175C107.229 242.976 107.49 243.541 107.959 243.968C108.429 244.395 109.005 244.608 109.687 244.608C110.669 244.608 111.362 244.197 111.767 243.376H113.735C113.469 244.187 112.983 244.853 112.279 245.376C111.586 245.888 110.722 246.144 109.687 246.144C108.845 246.144 108.087 245.957 107.415 245.584C106.754 245.2 106.231 244.667 105.847 243.984C105.474 243.291 105.287 242.491 105.287 241.584C105.287 240.677 105.469 239.883 105.831 239.2C106.205 238.507 106.722 237.973 107.383 237.6C108.055 237.227 108.823 237.04 109.687 237.04C110.519 237.04 111.261 237.221 111.911 237.584C112.562 237.947 113.069 238.459 113.431 239.12C113.794 239.771 113.975 240.523 113.975 241.376ZM112.071 240.8C112.061 240.128 111.821 239.589 111.351 239.184C110.882 238.779 110.301 238.576 109.607 238.576C108.978 238.576 108.439 238.779 107.991 239.184C107.543 239.579 107.277 240.117 107.191 240.8H112.071ZM129.063 246H127.239L121.751 237.696V246H119.927V234.864H121.751L127.239 243.152V234.864H129.063V246ZM138.002 234.88V236.368H133.282V239.648H136.962V241.136H133.282V246H131.458V234.88H138.002ZM139.084 240.416C139.084 239.328 139.335 238.352 139.836 237.488C140.348 236.624 141.036 235.952 141.9 235.472C142.775 234.981 143.73 234.736 144.764 234.736C145.948 234.736 146.999 235.029 147.916 235.616C148.844 236.192 149.516 237.013 149.932 238.08H147.74C147.452 237.493 147.052 237.056 146.54 236.768C146.028 236.48 145.436 236.336 144.764 236.336C144.028 236.336 143.372 236.501 142.796 236.832C142.22 237.163 141.767 237.637 141.436 238.256C141.116 238.875 140.956 239.595 140.956 240.416C140.956 241.237 141.116 241.957 141.436 242.576C141.767 243.195 142.22 243.675 142.796 244.016C143.372 244.347 144.028 244.512 144.764 244.512C145.436 244.512 146.028 244.368 146.54 244.08C147.052 243.792 147.452 243.355 147.74 242.768H149.932C149.516 243.835 148.844 244.656 147.916 245.232C146.999 245.808 145.948 246.096 144.764 246.096C143.719 246.096 142.764 245.856 141.9 245.376C141.036 244.885 140.348 244.208 139.836 243.344C139.335 242.48 139.084 241.504 139.084 240.416ZM155.615 241.552C155.615 240.667 155.797 239.883 156.159 239.2C156.533 238.517 157.034 237.989 157.663 237.616C158.303 237.232 159.013 237.04 159.791 237.04C160.367 237.04 160.933 237.168 161.487 237.424C162.053 237.669 162.501 238 162.831 238.416V234.16H164.671V246H162.831V244.672C162.533 245.099 162.117 245.451 161.583 245.728C161.061 246.005 160.458 246.144 159.775 246.144C159.007 246.144 158.303 245.952 157.663 245.568C157.034 245.173 156.533 244.629 156.159 243.936C155.797 243.232 155.615 242.437 155.615 241.552ZM162.831 241.584C162.831 240.976 162.703 240.448 162.447 240C162.202 239.552 161.877 239.211 161.471 238.976C161.066 238.741 160.629 238.624 160.159 238.624C159.69 238.624 159.253 238.741 158.847 238.976C158.442 239.2 158.111 239.536 157.855 239.984C157.61 240.421 157.487 240.944 157.487 241.552C157.487 242.16 157.61 242.693 157.855 243.152C158.111 243.611 158.442 243.963 158.847 244.208C159.263 244.443 159.701 244.56 160.159 244.56C160.629 244.56 161.066 244.443 161.471 244.208C161.877 243.973 162.202 243.632 162.447 243.184C162.703 242.725 162.831 242.192 162.831 241.584ZM175.147 241.376C175.147 241.707 175.126 242.005 175.083 242.272H168.347C168.401 242.976 168.662 243.541 169.131 243.968C169.601 244.395 170.177 244.608 170.859 244.608C171.841 244.608 172.534 244.197 172.939 243.376H174.907C174.641 244.187 174.155 244.853 173.451 245.376C172.758 245.888 171.894 246.144 170.859 246.144C170.017 246.144 169.259 245.957 168.587 245.584C167.926 245.2 167.403 244.667 167.019 243.984C166.646 243.291 166.459 242.491 166.459 241.584C166.459 240.677 166.641 239.883 167.003 239.2C167.377 238.507 167.894 237.973 168.555 237.6C169.227 237.227 169.995 237.04 170.859 237.04C171.691 237.04 172.433 237.221 173.083 237.584C173.734 237.947 174.241 238.459 174.603 239.12C174.966 239.771 175.147 240.523 175.147 241.376ZM173.243 240.8C173.233 240.128 172.993 239.589 172.523 239.184C172.054 238.779 171.473 238.576 170.779 238.576C170.15 238.576 169.611 238.779 169.163 239.184C168.715 239.579 168.449 240.117 168.363 240.8H173.243ZM180.35 244.368L182.846 237.184H184.782L181.422 246H179.246L175.902 237.184H177.854L180.35 244.368ZM187.089 236.016C186.758 236.016 186.481 235.904 186.257 235.68C186.033 235.456 185.921 235.179 185.921 234.848C185.921 234.517 186.033 234.24 186.257 234.016C186.481 233.792 186.758 233.68 187.089 233.68C187.409 233.68 187.681 233.792 187.905 234.016C188.129 234.24 188.241 234.517 188.241 234.848C188.241 235.179 188.129 235.456 187.905 235.68C187.681 235.904 187.409 236.016 187.089 236.016ZM187.985 237.184V246H186.161V237.184H187.985ZM189.772 241.584C189.772 240.677 189.953 239.883 190.316 239.2C190.689 238.507 191.201 237.973 191.852 237.6C192.502 237.227 193.249 237.04 194.092 237.04C195.158 237.04 196.038 237.296 196.732 237.808C197.436 238.309 197.91 239.029 198.156 239.968H196.188C196.028 239.531 195.772 239.189 195.42 238.944C195.068 238.699 194.625 238.576 194.092 238.576C193.345 238.576 192.748 238.843 192.3 239.376C191.862 239.899 191.644 240.635 191.644 241.584C191.644 242.533 191.862 243.275 192.3 243.808C192.748 244.341 193.345 244.608 194.092 244.608C195.148 244.608 195.846 244.144 196.188 243.216H198.156C197.9 244.112 197.42 244.827 196.716 245.36C196.012 245.883 195.137 246.144 194.092 246.144C193.249 246.144 192.502 245.957 191.852 245.584C191.201 245.2 190.689 244.667 190.316 243.984C189.953 243.291 189.772 242.491 189.772 241.584ZM208.053 241.376C208.053 241.707 208.032 242.005 207.989 242.272H201.253C201.307 242.976 201.568 243.541 202.037 243.968C202.507 244.395 203.083 244.608 203.765 244.608C204.747 244.608 205.44 244.197 205.845 243.376H207.813C207.547 244.187 207.061 244.853 206.357 245.376C205.664 245.888 204.8 246.144 203.765 246.144C202.923 246.144 202.165 245.957 201.493 245.584C200.832 245.2 200.309 244.667 199.925 243.984C199.552 243.291 199.365 242.491 199.365 241.584C199.365 240.677 199.547 239.883 199.909 239.2C200.283 238.507 200.8 237.973 201.461 237.6C202.133 237.227 202.901 237.04 203.765 237.04C204.597 237.04 205.339 237.221 205.989 237.584C206.64 237.947 207.147 238.459 207.509 239.12C207.872 239.771 208.053 240.523 208.053 241.376ZM206.149 240.8C206.139 240.128 205.899 239.589 205.429 239.184C204.96 238.779 204.379 238.576 203.685 238.576C203.056 238.576 202.517 238.779 202.069 239.184C201.621 239.579 201.355 240.117 201.269 240.8H206.149Z" fill="#1E73FF"/>
<defs>
<filter id="filter0_d_920_524" x="0" y="0" width="296" height="308" filterUnits="userSpaceOnUse" color-interpolation-filters="sRGB">
<feFlood flood-opacity="0" result="BackgroundImageFix"/>
<feColorMatrix in="SourceAlpha" type="matrix" values="0 0 0 0 0 0 0 0 0 0 0 0 0 0 0 0 0 0 127 0" result="hardAlpha"/>
<feOffset dy="4"/>
<feGaussianBlur stdDeviation="9"/>
<feComposite in2="hardAlpha" operator="out"/>
<feColorMatrix type="matrix" values="0 0 0 0 0 0 0 0 0 0 0 0 0 0 0 0 0 0 0.07 0"/>
<feBlend mode="normal" in2="BackgroundImageFix" result="effect1_dropShadow_920_524"/>
<feBlend mode="normal" in="SourceGraphic" in2="effect1_dropShadow_920_524" result="shape"/>
</filter>
<clipPath id="clip0_920_524">
<rect width="137" height="159.635" fill="white" transform="translate(68 195) rotate(-90)"/>
</clipPath>
</defs>
</svg>
