<svg width="22" height="22" viewBox="0 0 22 22" fill="none" xmlns="http://www.w3.org/2000/svg">
<g id="Outline / Essentional, UI / Home ">
<g id="Vector">
<path d="M8.24992 15.8127C7.87022 15.8127 7.56242 16.1205 7.56242 16.5002C7.56242 16.8799 7.87022 17.1877 8.24992 17.1877H13.7499C14.1296 17.1877 14.4374 16.8799 14.4374 16.5002C14.4374 16.1205 14.1296 15.8127 13.7499 15.8127H8.24992Z" fill="black" fill-opacity="0.3"/>
<path fill-rule="evenodd" clip-rule="evenodd" d="M10.9999 1.146C10.3508 1.146 9.76107 1.33191 9.12126 1.64305C8.50278 1.94381 7.7883 2.38724 6.89587 2.94113L5.00151 4.11682C4.15708 4.64089 3.48091 5.06053 2.95974 5.45965C2.42005 5.87296 2.00554 6.2939 1.70612 6.84091C1.40733 7.38678 1.27277 7.96759 1.20826 8.65414C1.14574 9.31949 1.14574 10.1331 1.14575 11.1535V12.6317C1.14574 14.3769 1.14573 15.7545 1.28573 16.8316C1.42934 17.9365 1.7311 18.8286 2.41291 19.5338C3.09787 20.2423 3.9695 20.5589 5.04856 20.7089C6.09437 20.8544 7.43002 20.8543 9.11328 20.8543H12.8865C14.5698 20.8543 15.9055 20.8544 16.9513 20.7089C18.0303 20.5589 18.902 20.2423 19.5869 19.5338C20.2687 18.8286 20.5705 17.9365 20.7141 16.8316C20.8541 15.7545 20.8541 14.3769 20.8541 12.6317V11.1534C20.8541 10.1331 20.8541 9.31948 20.7916 8.65414C20.7271 7.96759 20.5925 7.38678 20.2937 6.84091C19.9943 6.2939 19.5798 5.87296 19.0401 5.45965C18.5189 5.06053 17.8428 4.6409 16.9984 4.11683L15.104 2.94112C14.2115 2.38724 13.4971 1.94381 12.8786 1.64305C12.2388 1.33191 11.649 1.146 10.9999 1.146ZM7.58948 4.12894C8.5206 3.55106 9.17529 3.14574 9.72258 2.87959C10.2558 2.62029 10.6334 2.521 10.9999 2.521C11.3664 2.521 11.744 2.62029 12.2773 2.87959C12.8245 3.14573 13.4792 3.55106 14.4104 4.12894L16.2437 5.26675C17.1244 5.81338 17.7428 6.19807 18.2041 6.5513C18.6529 6.895 18.9111 7.17863 19.0876 7.50111C19.2647 7.82473 19.3681 8.20309 19.4226 8.78278C19.4784 9.37637 19.4791 10.1255 19.4791 11.1871V12.5814C19.4791 14.3881 19.4777 15.6762 19.3506 16.6544C19.2257 17.6151 18.9905 18.1725 18.5984 18.5781C18.2094 18.9805 17.6798 19.2194 16.7619 19.347C15.8217 19.4778 14.5818 19.4793 12.8333 19.4793H9.16659C7.41802 19.4793 6.1781 19.4778 5.23795 19.347C4.32004 19.2194 3.79046 18.9805 3.40148 18.5781C3.00935 18.1725 2.77413 17.6151 2.64926 16.6544C2.52212 15.6762 2.52075 14.3881 2.52075 12.5814V11.1871C2.52075 10.1255 2.52145 9.37637 2.57723 8.78278C2.6317 8.20309 2.73511 7.82473 2.91225 7.50111C3.08877 7.17863 3.34697 6.895 3.79576 6.5513C4.25701 6.19807 4.87539 5.81338 5.75615 5.26676L7.58948 4.12894Z" fill="black" fill-opacity="0.3"/>
</g>
</g>
</svg>
