<svg width="24" height="24" viewBox="0 0 24 24" fill="none" xmlns="http://www.w3.org/2000/svg">
<g clip-path="url(#clip0_61_123)">
<path d="M12 3.13499e-06C9.19005 -0.00399517 6.49308 1.10599 4.5 3.08677C4.32789 3.26279 4.23276 3.49998 4.23553 3.74614C4.2383 3.9923 4.33875 4.22728 4.51477 4.39939C4.69079 4.57149 4.92797 4.66662 5.17414 4.66385C5.4203 4.66108 5.65528 4.56064 5.82738 4.38462C6.63807 3.57541 7.6008 2.93453 8.66015 2.49887C9.71951 2.06322 10.8546 1.84139 12 1.84616C14.4166 1.84616 16.5877 2.80616 18.1735 4.38462C18.2588 4.47172 18.3603 4.54117 18.4724 4.58903C18.5844 4.63689 18.7048 4.6622 18.8267 4.66353C18.9485 4.66486 19.0694 4.64217 19.1825 4.59677C19.2956 4.55137 19.3986 4.48414 19.4857 4.39893C19.5728 4.31371 19.6422 4.21217 19.6901 4.10011C19.738 3.98805 19.7633 3.86766 19.7646 3.74581C19.7659 3.62397 19.7432 3.50305 19.6978 3.38998C19.6524 3.2769 19.5852 3.17387 19.5 3.08677C17.5065 1.10659 14.8098 -0.00328886 12 3.13499e-06ZM12 3.69231C11.1634 3.68996 10.3356 3.86336 9.5703 4.20126C8.80497 4.53916 8.11914 5.03404 7.55723 5.65385C7.46247 5.74029 7.38676 5.84553 7.33494 5.96286C7.28312 6.08019 7.25632 6.20703 7.25624 6.33529C7.25617 6.46355 7.28283 6.59042 7.33452 6.70781C7.38621 6.8252 7.46179 6.93052 7.55646 7.01707C7.65112 7.10362 7.76278 7.16949 7.88431 7.21048C8.00585 7.25147 8.1346 7.26669 8.26234 7.25515C8.39008 7.24361 8.51402 7.20558 8.62625 7.14348C8.73847 7.08138 8.83653 6.99657 8.91415 6.89446C9.30454 6.46453 9.78106 6.12159 10.3127 5.88796C10.8444 5.65433 11.4193 5.53525 12 5.53846C13.2249 5.53846 14.3243 6.05354 15.0868 6.89446C15.164 6.99761 15.262 7.08343 15.3745 7.14641C15.4869 7.20939 15.6113 7.24813 15.7396 7.26014C15.8679 7.27214 15.9973 7.25715 16.1195 7.21612C16.2416 7.17509 16.3538 7.10893 16.4489 7.02191C16.5439 6.93488 16.6197 6.82892 16.6713 6.71084C16.723 6.59277 16.7493 6.46518 16.7486 6.33632C16.748 6.20745 16.7203 6.08014 16.6675 5.9626C16.6147 5.84506 16.5378 5.73989 16.4418 5.65385C15.8798 5.03443 15.1941 4.5398 14.429 4.20193C13.6639 3.86405 12.8364 3.69044 12 3.69231ZM4.61538 6.46154V21.2308C4.61538 21.9652 4.90714 22.6696 5.42647 23.1889C5.9458 23.7082 6.65017 24 7.38461 24H16.6154C17.3498 24 18.0542 23.7082 18.5735 23.1889C19.0929 22.6696 19.3846 21.9652 19.3846 21.2308V6.46154L17.5385 8.3077V18.9231C17.5385 19.0455 17.4898 19.1629 17.4033 19.2494C17.3167 19.336 17.1993 19.3846 17.0769 19.3846H6.92308C6.80067 19.3846 6.68327 19.336 6.59672 19.2494C6.51016 19.1629 6.46154 19.0455 6.46154 18.9231V8.3077L4.61538 6.46154ZM12 7.38462C10.9772 7.38462 10.1538 8.20893 10.1538 9.23077C10.1538 10.2526 10.9772 11.0769 12 11.0769C12.4896 11.0769 12.9592 10.8824 13.3054 10.5362C13.6516 10.19 13.8462 9.7204 13.8462 9.23077C13.8462 8.74114 13.6516 8.27157 13.3054 7.92534C12.9592 7.57912 12.4896 7.38462 12 7.38462ZM12.4615 20.5098C13.1132 20.5098 13.644 21.0406 13.644 21.6923C13.644 22.344 13.1132 22.8748 12.4615 22.8748C12.1481 22.8743 11.8476 22.7495 11.626 22.5279C11.4043 22.3062 11.2796 22.0058 11.2791 21.6923C11.2791 21.0406 11.8098 20.5098 12.4615 20.5098Z" fill="#1E73FF"/>
</g>
<defs>
<clipPath id="clip0_61_123">
<rect width="24" height="24" fill="white"/>
</clipPath>
</defs>
</svg>
