<svg width="20" height="20" viewBox="0 0 20 20" fill="none" xmlns="http://www.w3.org/2000/svg">
<path fill-rule="evenodd" clip-rule="evenodd" d="M15.1198 3.02602C14.1448 3.19946 12.8304 3.63584 10.9856 4.25075L6.80955 5.64277C5.3262 6.13723 4.25179 6.4959 3.49293 6.81866C2.69953 7.1561 2.4173 7.39132 2.32564 7.54899C2.0433 8.03464 2.0433 8.63445 2.32564 9.12011C2.4173 9.27778 2.69953 9.513 3.49292 9.85044C4.25179 10.1732 5.32619 10.5319 6.80955 11.0263C6.83297 11.0341 6.8561 11.0418 6.87894 11.0494C7.1953 11.1547 7.45666 11.2416 7.68502 11.361L12.1212 6.97375C12.3726 6.72511 12.778 6.72735 13.0266 6.97877C13.2753 7.23019 13.273 7.63557 13.0216 7.88421L8.60498 12.2521C8.74268 12.4953 8.83588 12.7755 8.95094 13.1214C8.95854 13.1443 8.96623 13.1674 8.97404 13.1908C9.46849 14.6742 9.82716 15.7486 10.1499 16.5074C10.4874 17.3008 10.7226 17.5831 10.8803 17.6747C11.3659 17.9571 11.9657 17.9571 12.4514 17.6747C12.6091 17.5831 12.8443 17.3008 13.1817 16.5074C13.5045 15.7486 13.8631 14.6742 14.3576 13.1908L15.7496 9.01476C16.3645 7.17002 16.8009 5.85555 16.9743 4.88057C17.1486 3.90094 17.0154 3.48482 16.7655 3.23487C16.5155 2.98493 16.0994 2.85175 15.1198 3.02602ZM14.8955 1.7653C15.9807 1.57226 16.958 1.6165 17.6709 2.32942C18.3839 3.04233 18.4281 4.01968 18.2351 5.10484C18.0432 6.18345 17.5753 7.58711 16.9829 9.36423L15.5621 13.6265C15.0801 15.0727 14.7055 16.1965 14.3601 17.0086C14.0269 17.792 13.6569 18.4551 13.095 18.7818C12.2114 19.2954 11.1202 19.2954 10.2367 18.7818C9.67473 18.4551 9.30476 17.792 8.97157 17.0086C8.62614 16.1965 8.25158 15.0728 7.76952 13.6266L7.75924 13.5958C7.59036 13.0891 7.53888 12.9517 7.46595 12.8427C7.38432 12.7208 7.27958 12.616 7.15765 12.5344C7.04871 12.4615 6.91128 12.41 6.40462 12.2411L6.37375 12.2308C4.92759 11.7488 3.8039 11.3742 2.99175 11.0288C2.20834 10.6956 1.5453 10.3256 1.2186 9.76368C0.704963 8.88015 0.704964 7.78894 1.21861 6.90542C1.5453 6.34346 2.20834 5.9735 2.99175 5.6403C3.80391 5.29487 4.92762 4.9203 6.3738 4.43825L10.6362 3.01746C12.4133 2.42507 13.8169 1.95717 14.8955 1.7653Z" fill="#1E73FF"/>
</svg>
