<svg width="20" height="20" viewBox="0 0 20 20" fill="none" xmlns="http://www.w3.org/2000/svg">
<path d="M14.1667 11.6667C14.6269 11.6667 15 11.2936 15 10.8333C15 10.3731 14.6269 10 14.1667 10C13.7064 10 13.3333 10.3731 13.3333 10.8333C13.3333 11.2936 13.7064 11.6667 14.1667 11.6667Z" fill="black"/>
<path d="M14.1667 15C14.6269 15 15 14.6269 15 14.1667C15 13.7064 14.6269 13.3333 14.1667 13.3333C13.7064 13.3333 13.3333 13.7064 13.3333 14.1667C13.3333 14.6269 13.7064 15 14.1667 15Z" fill="black"/>
<path d="M10.8333 10.8333C10.8333 11.2936 10.4602 11.6667 9.99999 11.6667C9.53975 11.6667 9.16666 11.2936 9.16666 10.8333C9.16666 10.3731 9.53975 10 9.99999 10C10.4602 10 10.8333 10.3731 10.8333 10.8333Z" fill="black"/>
<path d="M10.8333 14.1667C10.8333 14.6269 10.4602 15 9.99999 15C9.53975 15 9.16666 14.6269 9.16666 14.1667C9.16666 13.7064 9.53975 13.3333 9.99999 13.3333C10.4602 13.3333 10.8333 13.7064 10.8333 14.1667Z" fill="black"/>
<path d="M5.83332 11.6667C6.29356 11.6667 6.66666 11.2936 6.66666 10.8333C6.66666 10.3731 6.29356 10 5.83332 10C5.37309 10 4.99999 10.3731 4.99999 10.8333C4.99999 11.2936 5.37309 11.6667 5.83332 11.6667Z" fill="black"/>
<path d="M5.83332 15C6.29356 15 6.66666 14.6269 6.66666 14.1667C6.66666 13.7064 6.29356 13.3333 5.83332 13.3333C5.37309 13.3333 4.99999 13.7064 4.99999 14.1667C4.99999 14.6269 5.37309 15 5.83332 15Z" fill="black"/>
<path fill-rule="evenodd" clip-rule="evenodd" d="M5.83332 1.45833C6.1785 1.45833 6.45832 1.73815 6.45832 2.08333V2.71893C7.00999 2.70832 7.61776 2.70833 8.28621 2.70833H11.7137C12.3821 2.70833 12.99 2.70832 13.5417 2.71893V2.08333C13.5417 1.73815 13.8215 1.45833 14.1667 1.45833C14.5118 1.45833 14.7917 1.73815 14.7917 2.08333V2.77257C15.0083 2.78909 15.2134 2.80985 15.4075 2.83594C16.3845 2.9673 17.1753 3.24406 17.799 3.8677C18.4226 4.49134 18.6994 5.28213 18.8307 6.25915C18.9583 7.20848 18.9583 8.4215 18.9583 9.95295V11.7137C18.9583 13.2451 18.9583 14.4582 18.8307 15.4075C18.6994 16.3845 18.4226 17.1753 17.799 17.799C17.1753 18.4226 16.3845 18.6994 15.4075 18.8307C14.4582 18.9584 13.2452 18.9583 11.7137 18.9583H8.28631C6.75486 18.9583 5.54181 18.9584 4.59247 18.8307C3.61545 18.6994 2.82466 18.4226 2.20103 17.799C1.57739 17.1753 1.30063 16.3845 1.16927 15.4075C1.04163 14.4582 1.04164 13.2451 1.04166 11.7137V9.95298C1.04164 8.42152 1.04163 7.20849 1.16927 6.25915C1.30063 5.28213 1.57739 4.49134 2.20103 3.8677C2.82466 3.24406 3.61545 2.9673 4.59247 2.83594C4.78658 2.80985 4.9917 2.78909 5.20832 2.77257V2.08333C5.20832 1.73815 5.48815 1.45833 5.83332 1.45833ZM4.75903 4.0748C3.92062 4.18752 3.43758 4.39891 3.08491 4.75158C2.73223 5.10426 2.52084 5.5873 2.40812 6.42571C2.38903 6.56769 2.37307 6.71717 2.35973 6.875H17.6403C17.6269 6.71717 17.6109 6.56769 17.5919 6.42571C17.4791 5.5873 17.2677 5.10426 16.9151 4.75158C16.5624 4.39891 16.0794 4.18752 15.2409 4.0748C14.3846 3.95966 13.2557 3.95833 11.6667 3.95833H8.33332C6.74431 3.95833 5.61542 3.95966 4.75903 4.0748ZM2.29166 10C2.29166 9.28832 2.29192 8.66894 2.30256 8.125H17.6974C17.7081 8.66894 17.7083 9.28832 17.7083 10V11.6667C17.7083 13.2557 17.707 14.3846 17.5919 15.241C17.4791 16.0794 17.2677 16.5624 16.9151 16.9151C16.5624 17.2678 16.0794 17.4791 15.2409 17.5919C14.3846 17.707 13.2557 17.7083 11.6667 17.7083H8.33332C6.74431 17.7083 5.61542 17.707 4.75903 17.5919C3.92062 17.4791 3.43758 17.2678 3.08491 16.9151C2.73223 16.5624 2.52084 16.0794 2.40812 15.241C2.29298 14.3846 2.29166 13.2557 2.29166 11.6667V10Z" fill="black"/>
</svg>
